<?xml version="1.0" standalone="no"?>
<!DOCTYPE svg PUBLIC "-//W3C//DTD SVG 20010904//EN"
 "http://www.w3.org/TR/2001/REC-SVG-20010904/DTD/svg10.dtd">
<svg version="1.0" xmlns="http://www.w3.org/2000/svg"
 width="700.000000pt" height="700.000000pt" viewBox="0 0 700.000000 700.000000"
 preserveAspectRatio="xMidYMid meet">
<metadata>
Created by potrace 1.14, written by Peter Selinger 2001-2017
</metadata>
<g transform="translate(0.000000,700.000000) scale(0.100000,-0.100000)"
fill="#000000" stroke="none">
<path d="M3278 6996 c-1 -2 -42 -6 -89 -10 -47 -4 -95 -8 -105 -10 -10 -2 -46
-7 -79 -11 -59 -7 -79 -10 -125 -20 -57 -12 -76 -16 -101 -19 -97 -14 -485
-134 -604 -186 -490 -216 -799 -423 -1140 -765 -213 -213 -303 -320 -454 -548
-269 -404 -469 -912 -535 -1362 -2 -16 -8 -50 -12 -75 -36 -226 -40 -683 -9
-907 10 -67 14 -99 20 -148 4 -27 10 -66 15 -85 5 -19 12 -48 14 -65 9 -48 13
-65 36 -155 21 -86 74 -259 89 -295 5 -11 28 -69 51 -129 139 -359 377 -742
650 -1046 91 -101 274 -277 359 -346 13 -10 28 -24 35 -29 51 -47 406 -295
422 -295 2 0 23 -12 46 -26 54 -34 295 -155 378 -189 153 -63 353 -131 475
-161 242 -59 389 -84 595 -101 123 -10 480 -10 595 0 633 57 1229 280 1750
655 50 36 95 70 100 76 6 6 28 24 49 40 59 44 131 108 235 210 83 81 121 122
252 270 61 70 289 385 289 400 0 2 19 35 42 72 220 362 400 896 453 1339 27
236 28 620 0 850 -152 1268 -1009 2368 -2210 2838 -215 85 -498 161 -710 193
-27 4 -57 9 -65 10 -8 2 -42 6 -76 9 -33 4 -74 9 -90 11 -33 5 -540 14 -546
10z m467 -841 c39 -3 81 -8 94 -10 13 -3 45 -7 70 -10 65 -9 223 -43 306 -67
723 -205 1322 -696 1659 -1359 143 -283 221 -531 270 -859 26 -172 26 -497 1
-688 -10 -78 -16 -118 -20 -132 -2 -8 -7 -31 -10 -50 -8 -52 -51 -214 -78
-300 -99 -309 -295 -662 -492 -890 -436 -503 -966 -807 -1600 -919 -267 -48
-618 -47 -890 0 -33 6 -69 12 -80 14 -50 8 -231 57 -326 89 -547 183 -1034
555 -1360 1038 -144 213 -270 476 -338 706 -36 120 -67 249 -76 312 -3 25 -8
52 -10 60 -3 8 -7 38 -10 65 -2 28 -8 79 -11 115 -13 129 -5 553 11 580 1 3 6
28 9 55 39 286 170 656 334 941 144 249 374 517 617 719 267 221 690 439 992
510 169 40 214 50 292 61 25 4 55 8 66 10 11 2 63 7 115 10 52 4 96 7 98 9 5
5 299 -3 367 -10z"/>
<path d="M3446 5403 c-96 -29 -164 -91 -207 -188 -22 -50 -22 -51 -22 -800
l-1 -750 -524 -525 c-579 -579 -574 -572 -578 -698 -7 -186 129 -327 316 -327
137 1 112 -21 804 671 l616 616 -2 892 -3 891 -24 47 c-70 141 -231 215 -375
171z"/>
</g>
</svg>
